<svg width="25" height="25" viewBox="0 0 25 25" fill="none" xmlns="http://www.w3.org/2000/svg">
<g clip-path="url(#clip0_34_674)">
<path d="M18.9531 0.271606H6.95413C3.63899 0.271606 0.953613 2.95819 0.953613 6.27212V18.2711C0.953613 21.585 3.63899 24.2716 6.95413 24.2716H18.9531C22.2786 24.2716 24.9536 21.585 24.9536 18.2711V6.27212C24.9536 2.95819 22.2682 0.271606 18.9531 0.271606ZM18.9531 2.04161C19.515 2.04641 20.0704 2.15965 20.5877 2.37488C21.1049 2.5901 21.5738 2.90309 21.9676 3.29596C22.3613 3.68883 22.6722 4.15388 22.8825 4.66454C23.0928 5.1752 23.1984 5.72146 23.1932 6.27212V18.2711C23.1984 18.8217 23.0928 19.368 22.8825 19.8787C22.6722 20.3893 22.3613 20.8544 21.9676 21.2473C21.5738 21.6401 21.1049 21.9531 20.5877 22.1683C20.0704 22.3836 19.515 22.4968 18.9531 22.5016H6.95413C5.82075 22.4898 4.73849 22.0376 3.94504 21.2444C3.1516 20.4512 2.71186 19.3818 2.72238 18.2711V6.27212C2.71186 5.16141 3.1516 4.09203 3.94504 3.29882C4.73849 2.50561 5.82075 2.05344 6.95413 2.04161H18.9531Z" fill="#7C5AED"/>
<g clip-path="url(#clip1_34_674)">
<path d="M5.5 12C5.5 13.9891 6.29018 15.8968 7.6967 17.3033C9.10322 18.7098 11.0109 19.5 13 19.5C14.9891 19.5 16.8968 18.7098 18.3033 17.3033C19.7098 15.8968 20.5 13.9891 20.5 12C20.5 10.0109 19.7098 8.10322 18.3033 6.6967C16.8968 5.29018 14.9891 4.5 13 4.5C11.0109 4.5 9.10322 5.29018 7.6967 6.6967C6.29018 8.10322 5.5 10.0109 5.5 12Z" stroke="#7C5AED" stroke-width="1.25" stroke-linecap="round" stroke-linejoin="round"/>
<path d="M7.8447 11.154C7.62397 11.3811 7.50049 11.6853 7.50049 12.002C7.50049 12.3187 7.62397 12.6229 7.8447 12.85C8.8787 13.8867 10.7274 15.5053 13 15.5053C15.2727 15.5053 17.1214 13.8873 18.156 12.8507C18.3766 12.6235 18.5 12.3193 18.5 12.0027C18.5 11.686 18.3766 11.3818 18.156 11.1547C17.122 10.118 15.2707 8.49866 13 8.49866C10.7294 8.49866 8.87937 10.1167 7.8447 11.154Z" stroke="#7C5AED" stroke-width="1.25" stroke-linecap="round" stroke-linejoin="round"/>
<path d="M11.5 12C11.5 12.3978 11.658 12.7794 11.9393 13.0607C12.2206 13.342 12.6022 13.5 13 13.5C13.3978 13.5 13.7794 13.342 14.0607 13.0607C14.342 12.7794 14.5 12.3978 14.5 12C14.5 11.6022 14.342 11.2206 14.0607 10.9393C13.7794 10.658 13.3978 10.5 13 10.5C12.6022 10.5 12.2206 10.658 11.9393 10.9393C11.658 11.2206 11.5 11.6022 11.5 12Z" stroke="#7C5AED" stroke-width="1.25" stroke-linecap="round" stroke-linejoin="round"/>
</g>
</g>
<defs>
<clipPath id="clip0_34_674">
<rect width="24" height="24" fill="white" transform="translate(0.953613 0.271606)"/>
</clipPath>
<clipPath id="clip1_34_674">
<rect width="16" height="16" fill="white" transform="translate(5 4)"/>
</clipPath>
</defs>
</svg>
