<svg width="24" height="24" viewBox="0 0 24 24" fill="none" xmlns="http://www.w3.org/2000/svg">
<g clip-path="url(#clip0_25_105)">
<path d="M6 13.223L8.45 16.7C8.54293 16.8388 8.66768 16.9534 8.81385 17.0343C8.96002 17.1152 9.12339 17.16 9.29037 17.165C9.45735 17.17 9.6231 17.135 9.77384 17.063C9.92458 16.991 10.0559 16.884 10.157 16.751L18 6.828" stroke="#FAFAFA" stroke-width="1.59375" stroke-linecap="round" stroke-linejoin="round"/>
<path d="M0.75 11.9989C0.75 14.9826 1.93526 17.8441 4.04505 19.9539C6.15483 22.0636 9.01631 23.2489 12 23.2489C14.9837 23.2489 17.8452 22.0636 19.955 19.9539C22.0647 17.8441 23.25 14.9826 23.25 11.9989C23.25 9.01522 22.0647 6.15373 19.955 4.04395C17.8452 1.93417 14.9837 0.748901 12 0.748901C9.01631 0.748901 6.15483 1.93417 4.04505 4.04395C1.93526 6.15373 0.75 9.01522 0.75 11.9989Z" stroke="#FAFAFA" stroke-width="1.59375" stroke-linecap="round" stroke-linejoin="round"/>
</g>
<defs>
<clipPath id="clip0_25_105">
<rect width="24" height="24" fill="white"/>
</clipPath>
</defs>
</svg>
