<svg width="201" height="200" viewBox="0 0 201 200" fill="none" xmlns="http://www.w3.org/2000/svg">
<g clip-path="url(#clip0_34_745)">
<path d="M150.496 0H50.5043C22.8781 0 0.5 22.3882 0.5 50.0042V149.996C0.5 177.612 22.8781 200 50.5043 200H150.496C178.208 200 200.5 177.612 200.5 149.996V50.0042C200.5 22.3882 178.122 0 150.496 0ZM150.496 14.7501C155.178 14.79 159.807 15.7337 164.117 17.5273C168.427 19.3208 172.335 21.9291 175.616 25.203C178.898 28.4769 181.488 32.3523 183.241 36.6078C184.993 40.8633 185.873 45.4155 185.83 50.0042V149.996C185.873 154.585 184.993 159.137 183.241 163.392C181.488 167.648 178.898 171.523 175.616 174.797C172.335 178.071 168.427 180.679 164.117 182.473C159.807 184.266 155.178 185.21 150.496 185.25H50.5043C41.0594 185.151 32.0406 181.383 25.4286 174.773C18.8166 168.163 15.152 159.252 15.2398 149.996V50.0042C15.152 40.7484 18.8166 31.8368 25.4286 25.2268C32.0406 18.6167 41.0594 14.8486 50.5043 14.7501H150.496Z" fill="#DFE0E1"/>
<g clip-path="url(#clip1_34_745)">
<path d="M38.3865 97.7366C38.3865 114.313 44.9713 130.21 56.6923 141.931C68.4133 153.652 84.3104 160.237 100.886 160.237C117.463 160.237 133.36 153.652 145.081 141.931C156.802 130.21 163.386 114.313 163.386 97.7366C163.386 81.1606 156.802 65.2635 145.081 53.5424C133.36 41.8214 117.463 35.2366 100.886 35.2366C84.3104 35.2366 68.4133 41.8214 56.6923 53.5424C44.9713 65.2635 38.3865 81.1606 38.3865 97.7366Z" stroke="#DFE0E1" stroke-width="10.4167" stroke-linecap="round" stroke-linejoin="round"/>
<path d="M57.9258 90.6866C56.0864 92.5791 55.0574 95.1142 55.0574 97.7533C55.0574 100.392 56.0864 102.927 57.9258 104.82C66.5425 113.459 81.948 126.948 100.887 126.948C119.826 126.948 135.231 113.464 143.854 104.825C145.692 102.932 146.72 100.398 146.72 97.7588C146.72 95.1202 145.692 92.5853 143.854 90.6922C135.237 82.0533 119.809 68.5588 100.887 68.5588C81.9647 68.5588 66.548 82.0422 57.9258 90.6866Z" stroke="#DFE0E1" stroke-width="10.4167" stroke-linecap="round" stroke-linejoin="round"/>
<path d="M88.3865 97.7366C88.3865 101.052 89.7034 104.231 92.0476 106.575C94.3918 108.92 97.5713 110.237 100.886 110.237C104.202 110.237 107.381 108.92 109.725 106.575C112.07 104.231 113.386 101.052 113.386 97.7366C113.386 94.4214 112.07 91.242 109.725 88.8978C107.381 86.5536 104.202 85.2366 100.886 85.2366C97.5713 85.2366 94.3918 86.5536 92.0476 88.8978C89.7034 91.242 88.3865 94.4214 88.3865 97.7366Z" stroke="#DFE0E1" stroke-width="10.4167" stroke-linecap="round" stroke-linejoin="round"/>
</g>
</g>
<defs>
<clipPath id="clip0_34_745">
<rect width="200" height="200" fill="white" transform="translate(0.5)"/>
</clipPath>
<clipPath id="clip1_34_745">
<rect width="133.333" height="133.333" fill="white" transform="translate(34.22 31.0699)"/>
</clipPath>
</defs>
</svg>
