<svg width="20" height="20" viewBox="0 0 20 20" fill="none" xmlns="http://www.w3.org/2000/svg">
<path d="M7.80333 15.4167L7.02666 16.1933C6.32339 16.8966 5.36956 17.2917 4.37499 17.2917C3.38042 17.2917 2.42659 16.8966 1.72333 16.1933C1.02006 15.4901 0.624969 14.5362 0.624969 13.5417C0.624969 12.5471 1.02006 11.5933 1.72333 10.89L5.70083 6.91165C6.36768 6.24329 7.2621 5.85107 8.20548 5.81331C9.14886 5.77554 10.0718 6.09502 10.7899 6.70794C11.5081 7.32085 11.9686 8.18211 12.0795 9.1197C12.1904 10.0573 11.9436 11.0022 11.3883 11.7658" stroke="#545759" stroke-width="1.25" stroke-linecap="round" stroke-linejoin="round"/>
<path d="M12.3483 4.63913L12.9733 4.01413C13.6766 3.31086 14.6304 2.91577 15.625 2.91577C16.6196 2.91577 17.5734 3.31086 18.2767 4.01413C18.9799 4.71739 19.375 5.67123 19.375 6.66579C19.375 7.66036 18.9799 8.6142 18.2767 9.31746L14.2992 13.295C13.6322 13.963 12.7378 14.355 11.7945 14.3925C10.8512 14.43 9.92844 14.1104 9.21048 13.4975C8.49251 12.8845 8.03215 12.0233 7.92131 11.0858C7.81046 10.1483 8.05729 9.20346 8.61251 8.43996" stroke="#545759" stroke-width="1.25" stroke-linecap="round" stroke-linejoin="round"/>
</svg>
