<svg width="30" height="30" viewBox="0 0 30 30" fill="none" xmlns="http://www.w3.org/2000/svg">
<path d="M14.6066 2.57819C17.6344 2.57819 20.1038 5.00529 20.1038 7.99343V13.8356H12.6583C12.1247 13.8356 11.7028 14.2502 11.7028 14.7747C11.7028 15.2869 12.1247 15.7138 12.6583 15.7138H20.1038V21.5437C20.1038 24.5319 17.6344 26.9712 14.5817 26.9712H8.53844C5.49818 26.9712 3.02875 24.5441 3.02875 21.5559V8.00563C3.02875 5.00529 5.51059 2.57819 8.55085 2.57819H14.6066ZM23.202 10.5671C23.5679 10.189 24.1655 10.189 24.5314 10.5549L28.0928 14.1041C28.2757 14.2871 28.3733 14.5188 28.3733 14.7749C28.3733 15.0189 28.2757 15.2628 28.0928 15.4335L24.5314 18.9827C24.3485 19.1657 24.1045 19.2632 23.8728 19.2632C23.6289 19.2632 23.3849 19.1657 23.202 18.9827C22.8361 18.6168 22.8361 18.0192 23.202 17.6533L25.1534 15.7141H20.1041V13.8358H25.1534L23.202 11.8966C22.8361 11.5307 22.8361 10.933 23.202 10.5671Z" fill="#FAFAFA"/>
</svg>
