<svg width="172" height="172" viewBox="0 0 172 172" fill="none" xmlns="http://www.w3.org/2000/svg">
<g clip-path="url(#clip0_71_283)">
<path d="M0 0H172V172H0V0Z" fill="#F7DF1E"/>
<path d="M45.2248 143.736L58.3868 135.77C60.9265 140.272 63.2364 144.082 68.7774 144.082C74.0885 144.082 77.4378 142.004 77.4378 133.923V78.9648H93.6011V134.151C93.6011 150.892 83.7877 158.513 69.4701 158.513C56.5398 158.513 49.0343 151.816 45.2241 143.734M102.381 142.003L115.541 134.384C119.006 140.042 123.509 144.198 131.475 144.198C138.173 144.198 142.443 140.849 142.443 136.231C142.443 130.689 138.056 128.726 130.666 125.494L126.626 123.761C114.965 118.798 107.229 112.563 107.229 99.4006C107.229 87.2773 116.466 78.0403 130.898 78.0403C141.174 78.0403 148.563 81.6201 153.874 90.9719L141.288 99.0545C138.517 94.0901 135.516 92.1275 130.898 92.1275C126.164 92.1275 123.162 95.1294 123.162 99.0545C123.162 103.903 126.164 105.867 133.091 108.869L137.131 110.601C150.871 116.49 158.606 122.493 158.606 136C158.606 150.549 147.176 158.515 131.821 158.515C116.812 158.515 107.113 151.357 102.38 142.004" fill="black"/>
</g>
<defs>
<clipPath id="clip0_71_283">
<rect width="172" height="172" fill="white"/>
</clipPath>
</defs>
</svg>
